<?xml version="1.0" encoding="utf-8"?><svg xmlns="http://www.w3.org/2000/svg" xmlns:xlink="http://www.w3.org/1999/xlink"><symbol viewBox="0 0 60 60" id="apitherapy" xmlns="http://www.w3.org/2000/svg"><path d="M.47 53.848C9.168 59.285 8.592 59 9 59s-.1.239 8-4.821C25.117 59.252 24.6 59 25 59s0 .177 6.54-3.912a1.002 1.002 0 0 0-1.061-1.7L25 56.821l-7-4.375v-6.892l3.651-2.286a1.002 1.002 0 0 0-1.062-1.7L17 43.82l-7-4.374v-6.892l7-4.374c3.9 2.443 3.643 2.316 3.922 2.373a1 1 0 0 0 .729-1.821L18 26.446v-6.892l7-4.375 7 4.375V21a1 1 0 0 0 2 0v-1.446l7-4.375 7 4.375V27a1 1 0 0 0 2 0v-8a1 1 0 0 0-.47-.848L42 13.446V6a1 1 0 0 0-.47-.848l-8-5a1 1 0 0 0-1.06 0L25 4.821 17.53.152a1 1 0 0 0-1.06 0l-8 5A1 1 0 0 0 8 6v7.446L.47 18.152A1 1 0 0 0 0 19v8a1 1 0 0 0 .47.848L8 32.554v6.892L.47 44.152A1 1 0 0 0 0 45v8a1 1 0 0 0 .47.848zM33 2.179l7 4.375v6.892l-7 4.375-7-4.375V6.554zm-16 0 7 4.375v6.892l-7 4.375-7-4.375V6.554zM2 19.554l7-4.375 7 4.375v6.892l-7 4.375-7-4.375zm0 26 7-4.375 7 4.375v6.892l-7 4.375-7-4.375z"/><path d="M46 30.012V29a5.987 5.987 0 0 0-2.1-4.553l1-2a1 1 0 0 0-1.79-.892l-.927 1.861a5.925 5.925 0 0 0-4.356 0l-.927-1.862a1 1 0 1 0-1.79.892l1 2A5.987 5.987 0 0 0 34 29v1.009C33.09 30 32.1 30 31 30c-5.312 0-11 2.411-11 6 0 4.308 8.125 6.579 12.167 5.891-.092.8-.167 1.89-.167 2.609 0 7 3 12.581 7 13.389V59a1 1 0 0 0 2 0v-1.111c4-.808 7-6.393 7-13.389 0-.715-.076-1.812-.166-2.6C51.929 42.577 60 40.3 60 36c0-3.589-5.688-6-11-6-1.05 0-2.061 0-3 .012zM36 29a4 4 0 1 1 8 0v1.052a12.671 12.671 0 0 0-3.993.576A11.966 11.966 0 0 0 36 30.049zm4.006 6.381A13.316 13.316 0 0 0 41.727 38H38.27a14.211 14.211 0 0 0 1.736-2.619zM22 36c0-1.8 4.153-4 9-4 2 0 6.731-.036 7.973.358C38.631 34.763 35.146 40 31 40c-4.847 0-9-2.2-9-4zm14.214 4h7.555c.606.479 1.262.89 1.957 1.225.04.257.075.516.106.775H39a1 1 0 0 0 0 2h6.977c.044.667.031 1.336-.037 2H34.06a12.533 12.533 0 0 1-.037-2H35a1 1 0 0 0 0-2h-.832c.032-.265.067-.53.109-.793.688-.33 1.337-.735 1.937-1.207zM35.5 52H40a1 1 0 0 0 0-2h-5.241a18.416 18.416 0 0 1-.46-2H45.7c-.116.675-.27 1.342-.46 2H44a1 1 0 0 0 0 2h.5c-2.434 5.33-6.567 5.328-9 0zM58 36c0 2.487-7.435 4.99-10.992 3.61a11.025 11.025 0 0 1-5.978-7.237c1.437-.433 5.77-.358 7.97-.373 4.847 0 9 2.2 9 4z"/></symbol><symbol viewBox="0 0 512.001 512.001" id="beans" xmlns="http://www.w3.org/2000/svg"><path d="M242.488 120.593c-3.526-4.394-9.945-5.097-14.337-1.571-5.263 4.224-11.622 6.457-18.39 6.457-6.768 0-13.127-2.232-18.39-6.457-4.392-3.527-10.811-2.823-14.337 1.571-3.526 4.392-2.823 10.811 1.571 14.337 8.795 7.058 19.859 10.946 31.156 10.946 11.297 0 22.361-3.888 31.156-10.946 4.394-3.526 5.097-9.944 1.571-14.337z"/><path d="M504.631 264.492c-8.163-22.526-22.391-41.812-41.147-55.774-13.269-9.878-28.419-16.679-44.683-20.203 3.462-32.092-6.464-65.395-27.393-90.697-22.63-27.358-55.115-42.424-91.47-42.424h-5.942c-25.451 0-50.164 9.038-71.469 26.135-3.653 2.932-8.068 4.482-12.766 4.482s-9.113-1.55-12.766-4.482c-21.304-17.099-46.018-26.135-71.469-26.135h-5.942c-26.268 0-50.843 7.958-71.069 23.014C29.76 92.37 15.532 111.657 7.369 134.182c-8.129 22.435-9.564 46.232-4.149 68.822 5.843 24.371 19.547 46.11 39.632 62.866a261.144 261.144 0 0 0 49.861 32.725c-.727 11.66.258 23.342 2.985 34.719 5.843 24.371 19.547 46.11 39.632 62.866 46.708 38.966 105.984 60.427 166.909 60.427s120.202-21.459 166.909-60.427c20.085-16.756 33.789-38.495 39.631-62.866 5.416-22.588 3.982-46.387-4.148-68.822zM95.972 277.276a240.883 240.883 0 0 1-40.053-27.067c-39.007-32.542-40.749-77.682-29.372-109.077 11.446-31.588 41.898-65.34 93.039-65.34h5.942c20.758 0 41.057 7.485 58.702 21.646 7.208 5.786 16.276 8.971 25.533 8.971s18.325-3.186 25.533-8.971c17.644-14.162 37.944-21.646 58.702-21.646h5.942c30.165 0 57.068 12.44 75.754 35.029 17.351 20.974 25.637 48.509 22.887 75.049a128.576 128.576 0 0 0-6.163-.165h-5.942c-25.451 0-50.164 9.038-71.469 26.135-3.653 2.932-8.067 4.481-12.766 4.481s-9.113-1.55-12.766-4.481c-21.305-17.099-46.018-26.135-71.469-26.135h-5.942c-26.268 0-50.843 7.958-71.069 23.014-18.756 13.962-32.985 33.249-41.147 55.774a124.227 124.227 0 0 0-3.876 12.783zm360.11 103.242c-43.047 35.914-97.683 55.692-153.843 55.692s-110.796-19.779-153.843-55.692c-39.007-32.541-40.749-77.682-29.373-109.077 11.447-31.588 41.898-65.34 93.039-65.34h5.942c20.758 0 41.057 7.485 58.702 21.646 7.208 5.785 16.276 8.971 25.533 8.971s18.324-3.186 25.533-8.971c17.645-14.161 37.944-21.646 58.702-21.646h5.942c51.141 0 81.592 33.753 93.039 65.34 11.376 31.395 9.633 76.536-29.373 109.077z"/><path d="M333.342 249.52c-3.526-4.393-9.944-5.096-14.337-1.571-5.263 4.224-11.622 6.457-18.39 6.457-6.768 0-13.126-2.232-18.39-6.457-4.392-3.526-10.811-2.823-14.337 1.571-3.526 4.392-2.823 10.811 1.571 14.337 8.795 7.058 19.86 10.946 31.156 10.946s22.361-3.887 31.156-10.946c4.393-3.525 5.097-9.944 1.571-14.337zm78.732 135.412c-2.57-5.011-8.718-6.991-13.729-4.419-29.909 15.341-62.244 23.12-96.106 23.12-5.633 0-10.198 4.566-10.198 10.198 0 5.633 4.566 10.198 10.198 10.198 37.131 0 72.598-8.535 105.415-25.369 5.011-2.57 6.99-8.717 4.42-13.728zm39.534-28.871c-3.608-4.327-10.038-4.909-14.363-1.3a214.734 214.734 0 0 1-7.237 5.774c-4.479 3.417-5.34 9.816-1.924 14.294a10.18 10.18 0 0 0 8.116 4.014c2.157 0 4.33-.681 6.177-2.09a231.852 231.852 0 0 0 7.932-6.329c4.325-3.608 4.907-10.039 1.299-14.363z"/></symbol></svg>